<svg width="430" height="932" viewBox="0 0 430 932" fill="none" xmlns="http://www.w3.org/2000/svg">
<g clip-path="url(#clip0_933_30019)">
<rect width="430" height="932" fill="#FFE2B6"/>
<path d="M349.392 91.0382C338.97 84.9489 340.073 69.5473 351.257 65.0059L355.328 63.3525C358.818 61.9353 361.622 59.2195 363.15 55.7767L365.141 51.2894C370.227 39.8286 386.462 39.7446 391.667 51.1522L393.84 55.9169C395.372 59.275 398.124 61.925 401.537 63.3297L405.241 64.854C416.413 69.452 417.433 84.8783 406.963 90.9069L399.814 95.0231C397.468 96.3741 395.545 98.3532 394.263 100.738L390.875 107.037C385.423 117.172 370.917 117.261 365.343 107.193L361.685 100.586C360.418 98.2977 358.557 96.3934 356.298 95.0737L349.392 91.0382Z" fill="white" fill-opacity="0.2"/>
<path d="M382.392 621.292C371.97 615.202 373.073 599.801 384.257 595.259L388.328 593.606C391.818 592.189 394.622 589.473 396.15 586.03L398.141 581.543C403.227 570.082 419.462 569.998 424.667 581.406L426.84 586.17C428.372 589.528 431.124 592.178 434.537 593.583L438.241 595.107C449.413 599.706 450.433 615.132 439.963 621.16L432.814 625.277C430.468 626.628 428.545 628.607 427.263 630.991L423.875 637.29C418.423 647.426 403.917 647.514 398.343 637.446L394.685 630.84C393.418 628.551 391.557 626.647 389.298 625.327L382.392 621.292Z" fill="white" fill-opacity="0.2"/>
<path d="M392.59 218.897C369.92 211.369 346.03 220.645 336.324 239.772C334.813 242.749 336.568 246.203 339.737 247.255L417.981 273.238C421.15 274.29 424.622 272.573 425.193 269.283C428.856 248.149 415.261 226.425 392.59 218.897Z" fill="white" fill-opacity="0.2"/>
<path fill-rule="evenodd" clip-rule="evenodd" d="M235.866 121.797C244.791 123.319 253.758 118.196 256.788 109.354C260.153 99.5323 254.92 88.8419 245.099 85.4761C235.37 82.1424 224.79 87.2449 221.319 96.8861L221.315 96.8848C224.486 87.1415 219.259 76.6227 209.532 73.2891C199.71 69.9234 189.02 75.1568 185.654 84.9783C182.692 93.6212 186.39 102.937 194.013 107.342C185.089 105.822 176.124 110.945 173.094 119.786C169.728 129.608 174.962 140.298 184.783 143.664C194.511 146.997 205.092 141.895 208.563 132.254C208.565 132.254 208.566 132.255 208.568 132.255C205.396 141.999 210.622 152.518 220.35 155.852C230.172 159.218 240.862 153.984 244.228 144.163C247.19 135.519 243.492 126.202 235.866 121.797Z" fill="white" fill-opacity="0.1"/>
<path fill-rule="evenodd" clip-rule="evenodd" d="M288.866 574.797C297.791 576.319 306.758 571.196 309.788 562.354C313.153 552.532 307.92 541.842 298.099 538.476C288.37 535.142 277.79 540.245 274.319 549.886L274.315 549.885C277.486 540.141 272.259 529.623 262.532 526.289C252.71 522.923 242.02 528.157 238.654 537.978C235.692 546.621 239.39 555.937 247.013 560.342C238.089 558.822 229.124 563.945 226.094 572.786C222.728 582.608 227.962 593.298 237.783 596.664C247.511 599.997 258.092 594.895 261.563 585.254C261.565 585.254 261.566 585.255 261.568 585.255C258.396 594.999 263.622 605.518 273.35 608.852C283.172 612.218 293.862 606.984 297.228 597.163C300.19 588.519 296.492 579.202 288.866 574.797Z" fill="white" fill-opacity="0.1"/>
<path fill-rule="evenodd" clip-rule="evenodd" d="M78.4801 72.7616C80.6486 74.5087 88.0493 78.716 92.7121 81.1401C87.8979 79.6339 80.2385 77.5168 76.8718 76.8526C71.7735 75.8469 64 75.5953 64 82.6986C64 89.7429 72.6378 88.8122 76.7689 88.3671L76.8718 88.356C79.3002 88.0947 85.9129 86.3255 90.883 84.8265C86.3086 87.2809 80.3817 90.7058 78.4798 92.2381L78.3992 92.303C75.1633 94.9094 68.3974 100.359 73.3784 105.34C78.4012 110.363 83.7201 104.688 86.6139 100.372C88.524 97.5233 92.4402 90.6156 94.7797 86.1461C93.1967 91.1579 90.9404 99.3605 90.6426 102.128L90.6315 102.231C90.1864 106.362 89.2557 115 96.3 115C103.403 115 103.152 107.226 102.146 102.128C101.481 98.7598 99.3628 91.0949 97.8564 86.2811C100.28 90.9435 104.491 98.3504 106.239 100.52L106.303 100.601C108.91 103.836 114.36 110.602 119.341 105.621C124.363 100.599 118.689 95.2797 114.373 92.3858C111.523 90.475 104.611 86.5565 100.141 84.2174C105.153 85.8004 113.36 88.0581 116.128 88.356L116.231 88.3671C120.362 88.8122 129 89.7429 129 82.6986C129 75.5953 121.226 75.8469 116.128 76.8526C112.128 77.6417 102.07 80.4814 97.9214 81.9113C101.866 79.9891 110.987 74.8844 114.373 72.6139C118.689 69.7201 124.364 64.4012 119.341 59.3785C114.36 54.3974 108.91 61.1633 106.304 64.3992L106.239 64.4798C104.491 66.6496 100.279 74.0581 97.8559 78.7204C99.3623 73.9067 101.481 66.2404 102.146 62.8716C103.152 57.7734 103.403 49.9999 96.3 49.9999C89.2557 49.9999 90.1864 58.6377 90.6315 62.7688L90.6426 62.8716C90.9404 65.6389 93.1962 73.84 94.7791 78.8519C92.4395 74.3824 88.5241 67.476 86.6143 64.6275C83.7204 60.3113 78.4016 54.6367 73.3788 59.6595C68.3977 64.6406 75.1637 70.0903 78.3996 72.6967L78.4801 72.7616Z" fill="white" fill-opacity="0.2"/>
<path fill-rule="evenodd" clip-rule="evenodd" d="M120.48 649.762C122.649 651.509 130.049 655.716 134.712 658.14C129.898 656.634 122.239 654.517 118.872 653.853C113.774 652.847 106 652.595 106 659.699C106 666.743 114.638 665.812 118.769 665.367L118.872 665.356C121.3 665.095 127.913 663.326 132.883 661.827C128.309 664.281 122.382 667.706 120.48 669.238L120.399 669.303C117.163 671.91 110.397 677.359 115.378 682.34C120.401 687.363 125.72 681.688 128.614 677.372C130.524 674.523 134.44 667.616 136.78 663.146C135.197 668.158 132.94 676.361 132.643 679.128L132.631 679.231C132.186 683.362 131.256 692 138.3 692C145.403 692 145.152 684.226 144.146 679.128C143.481 675.76 141.363 668.095 139.856 663.281C142.28 667.944 146.491 675.35 148.239 677.52L148.303 677.601C150.91 680.836 156.36 687.602 161.341 682.621C166.363 677.599 160.689 672.28 156.373 669.386C153.523 667.475 146.611 663.557 142.141 661.217C147.153 662.8 155.36 665.058 158.128 665.356L158.231 665.367C162.362 665.812 171 666.743 171 659.699C171 652.595 163.226 652.847 158.128 653.853C154.128 654.642 144.07 657.481 139.921 658.911C143.866 656.989 152.987 651.884 156.373 649.614C160.689 646.72 166.364 641.401 161.341 636.379C156.36 631.397 150.91 638.163 148.304 641.399L148.239 641.48C146.491 643.65 142.279 651.058 139.856 655.72C141.362 650.907 143.481 643.24 144.146 639.872C145.152 634.773 145.403 627 138.3 627C131.256 627 132.186 635.638 132.631 639.769L132.643 639.872C132.94 642.639 135.196 650.84 136.779 655.852C134.44 651.382 130.524 644.476 128.614 641.628C125.72 637.311 120.402 631.637 115.379 636.66C110.398 641.641 117.164 647.09 120.4 649.697L120.48 649.762Z" fill="white" fill-opacity="0.2"/>
<path fill-rule="evenodd" clip-rule="evenodd" d="M175 238.279C175 241.393 171.699 244.213 166.363 246.254C171.699 248.295 175 251.114 175 254.228C175 257.342 171.7 260.161 166.365 262.202C171.7 264.243 175 267.062 175 270.176C175 276.405 161.792 281.455 145.5 281.455C129.208 281.455 116 276.405 116 270.176C116 267.062 119.3 264.243 124.635 262.202C119.3 260.161 116 257.342 116 254.228C116 251.114 119.301 248.295 124.637 246.254C119.301 244.213 116 241.393 116 238.279C116 232.05 129.208 227 145.5 227C161.792 227 175 232.05 175 238.279Z" fill="white" fill-opacity="0.2"/>
<path fill-rule="evenodd" clip-rule="evenodd" d="M367 763.279C367 766.393 363.699 769.213 358.363 771.254C363.699 773.295 367 776.114 367 779.228C367 782.342 363.7 785.161 358.365 787.202C363.7 789.243 367 792.062 367 795.176C367 801.405 353.792 806.455 337.5 806.455C321.208 806.455 308 801.405 308 795.176C308 792.062 311.3 789.243 316.635 787.202C311.3 785.161 308 782.342 308 779.228C308 776.114 311.301 773.295 316.637 771.254C311.301 769.213 308 766.393 308 763.279C308 757.05 321.208 752 337.5 752C353.792 752 367 757.05 367 763.279Z" fill="white" fill-opacity="0.2"/>
<path d="M49.3376 336.284C59.7647 330.198 58.6606 314.804 47.4715 310.265L43.379 308.605C39.8874 307.188 37.0821 304.474 35.5535 301.033L33.5523 296.528C28.4637 285.073 12.2203 284.989 7.01345 296.391L4.82944 301.173C3.29667 304.529 0.543802 307.178 -2.87119 308.582L-6.5953 310.113C-17.7734 314.709 -18.7936 330.127 -8.31828 336.153L-1.14745 340.278C1.20009 341.628 3.1237 343.606 4.40684 345.989L7.80563 352.302C13.2598 362.433 27.7733 362.521 33.3508 352.458L37.0199 345.838C38.2877 343.551 40.1494 341.647 42.4092 340.328L49.3376 336.284Z" fill="white" fill-opacity="0.2"/>
<path d="M53.3376 767.284C63.7647 761.198 62.6606 745.804 51.4715 741.265L47.379 739.605C43.8874 738.188 41.0821 735.474 39.5535 732.033L37.5523 727.528C32.4637 716.073 16.2203 715.989 11.0134 727.391L8.82944 732.173C7.29667 735.529 4.5438 738.178 1.12881 739.582L-2.5953 741.113C-13.7734 745.709 -14.7936 761.127 -4.31828 767.153L2.85255 771.278C5.20009 772.628 7.1237 774.606 8.40684 776.989L11.8056 783.302C17.2598 793.433 31.7733 793.521 37.3508 783.458L41.0199 776.838C42.2877 774.551 44.1494 772.647 46.4092 771.328L53.3376 767.284Z" fill="white" fill-opacity="0.2"/>
<path d="M184.907 374.897C207.6 367.368 231.515 376.645 241.231 395.772C242.743 398.75 240.988 402.202 237.819 403.253L159.485 429.24C156.316 430.291 152.842 428.573 152.272 425.283C148.604 404.15 162.213 382.425 184.907 374.897Z" fill="white" fill-opacity="0.2"/>
<path fill-rule="evenodd" clip-rule="evenodd" d="M309.041 345.797C300.108 347.319 291.132 342.196 288.099 333.354C284.73 323.532 289.968 312.842 299.8 309.476C309.538 306.142 320.129 311.245 323.604 320.886L323.608 320.885C320.433 311.141 325.666 300.623 335.403 297.289C345.235 293.923 355.936 299.157 359.305 308.978C362.27 317.621 358.569 326.937 350.938 331.342C359.871 329.822 368.845 334.945 371.877 343.786C375.247 353.608 370.008 364.298 360.176 367.664C350.438 370.998 339.847 365.895 336.372 356.253C336.371 356.254 336.37 356.254 336.368 356.255C339.543 365.999 334.311 376.518 324.573 379.852C314.742 383.218 304.04 377.984 300.671 368.163C297.706 359.519 301.408 350.202 309.041 345.797Z" fill="white" fill-opacity="0.1"/>
<path fill-rule="evenodd" clip-rule="evenodd" d="M169.041 842.797C160.108 844.319 151.132 839.196 148.099 830.354C144.73 820.532 149.968 809.842 159.8 806.476C169.538 803.142 180.129 808.245 183.604 817.886L183.608 817.885C180.433 808.141 185.666 797.623 195.403 794.289C205.235 790.923 215.936 796.157 219.305 805.978C222.27 814.621 218.569 823.937 210.938 828.342C219.871 826.822 228.845 831.945 231.877 840.786C235.247 850.608 230.008 861.298 220.176 864.664C210.438 867.998 199.847 862.895 196.372 853.254C196.371 853.254 196.37 853.255 196.368 853.255C199.543 862.999 194.311 873.518 184.573 876.852C174.742 880.218 164.04 874.984 160.671 865.163C157.706 856.519 161.408 847.202 169.041 842.797Z" fill="white" fill-opacity="0.1"/>
<path fill-rule="evenodd" clip-rule="evenodd" d="M412.572 474.762C410.401 476.509 402.993 480.716 398.326 483.14C403.145 481.634 410.812 479.517 414.182 478.853C419.285 477.847 427.066 477.595 427.066 484.699C427.066 491.743 418.42 490.812 414.284 490.367L414.182 490.356C411.751 490.095 405.131 488.325 400.156 486.826C404.735 489.281 410.668 492.706 412.572 494.238L412.652 494.303C415.892 496.909 422.664 502.359 417.678 507.34C412.65 512.363 407.326 506.688 404.429 502.372C402.518 499.524 398.598 492.618 396.256 488.148C397.841 493.16 400.099 501.361 400.397 504.128L400.408 504.231C400.854 508.362 401.785 517 394.734 517C387.623 517 387.875 509.226 388.882 504.128C389.547 500.759 391.668 493.093 393.176 488.28C390.75 492.942 386.535 500.35 384.785 502.52L384.72 502.6C382.111 505.836 376.656 512.602 371.67 507.621C366.642 502.598 372.322 497.28 376.643 494.386C379.496 492.475 386.415 488.556 390.889 486.217C385.872 487.8 377.656 490.058 374.885 490.356L374.782 490.367C370.647 490.812 362 491.743 362 484.699C362 477.595 369.782 477.847 374.885 478.853C378.888 479.641 388.955 482.481 393.109 483.911C389.16 481.988 380.031 476.884 376.642 474.614C372.322 471.72 366.641 466.401 371.669 461.379C376.655 456.398 382.111 463.163 384.72 466.399L384.785 466.48C386.535 468.65 390.751 476.06 393.177 480.722C391.669 475.909 389.547 468.241 388.882 464.872C387.875 459.773 387.623 452 394.734 452C401.785 452 400.854 460.638 400.408 464.769L400.397 464.872C400.099 467.639 397.841 475.839 396.256 480.851C398.598 476.382 402.518 469.476 404.429 466.627C407.326 462.311 412.65 456.637 417.678 461.66C422.664 466.641 415.892 472.09 412.652 474.697L412.572 474.762Z" fill="white" fill-opacity="0.2"/>
<path fill-rule="evenodd" clip-rule="evenodd" d="M106.572 899.762C104.401 901.509 96.9935 905.716 92.3259 908.14C97.145 906.634 104.812 904.517 108.182 903.853C113.285 902.847 121.066 902.595 121.066 909.699C121.066 916.743 112.42 915.812 108.284 915.367L108.182 915.356C105.751 915.095 99.1308 913.325 94.1555 911.826C98.7347 914.281 104.668 917.706 106.572 919.238L106.652 919.303C109.892 921.91 116.664 927.359 111.678 932.34C106.65 937.363 101.326 931.688 98.4294 927.372C96.5176 924.524 92.5984 917.618 90.2564 913.148C91.8409 918.16 94.0989 926.361 94.397 929.128L94.4081 929.231C94.8537 933.362 95.7853 942 88.7339 942C81.6233 942 81.8752 934.226 82.8819 929.128C83.5471 925.76 85.6684 918.093 87.1763 913.28C84.7505 917.942 80.5349 925.35 78.785 927.52L78.72 927.6C76.111 930.836 70.6557 937.602 65.6695 932.621C60.6416 927.598 66.322 922.28 70.6426 919.386C73.4955 917.475 80.4147 913.556 84.8885 911.217C79.8721 912.8 71.6564 915.058 68.8851 915.356L68.7821 915.367C64.6468 915.812 56.0002 916.743 56.0002 909.699C56.0002 902.595 63.7817 902.847 68.8851 903.853C72.8884 904.642 82.955 907.481 87.1087 908.911C83.1595 906.988 74.0314 901.884 70.6421 899.614C66.3216 896.72 60.6412 891.401 65.6691 886.379C70.6552 881.398 76.1105 888.164 78.7196 891.399L78.7845 891.48C80.5347 893.65 84.7513 901.06 87.177 905.722C85.669 900.909 83.5472 893.241 82.8819 889.872C81.8752 884.773 81.6233 877 88.7339 877C95.7853 877 94.8537 885.638 94.4081 889.769L94.397 889.872C94.0989 892.639 91.841 900.839 90.2564 905.851C92.5984 901.382 96.5176 894.476 98.4293 891.628C101.326 887.311 106.65 881.637 111.678 886.66C116.664 891.641 109.892 897.09 106.652 899.697L106.572 899.762Z" fill="white" fill-opacity="0.2"/>
<path fill-rule="evenodd" clip-rule="evenodd" d="M64.9985 499.279C64.9985 502.393 68.3024 505.213 73.6443 507.254C68.3024 509.295 64.9985 512.114 64.9985 515.228C64.9985 518.342 68.3017 521.161 73.6427 523.202C68.3017 525.243 64.9985 528.062 64.9985 531.176C64.9985 537.405 78.2195 542.455 94.5285 542.455C110.838 542.455 124.059 537.405 124.059 531.176C124.059 528.062 120.755 525.243 115.414 523.202C120.755 521.161 124.059 518.342 124.059 515.228C124.059 512.114 120.755 509.295 115.413 507.254C120.755 505.213 124.059 502.393 124.059 499.279C124.059 493.05 110.838 488 94.5285 488C78.2195 488 64.9985 493.05 64.9985 499.279Z" fill="white" fill-opacity="0.2"/>
<path d="M423.59 885.897C400.92 878.369 377.03 887.645 367.324 906.772C365.813 909.749 367.568 913.203 370.737 914.255L448.981 940.238C452.15 941.29 455.622 939.573 456.193 936.283C459.856 915.149 446.261 893.425 423.59 885.897Z" fill="white" fill-opacity="0.2"/>
</g>
<defs>
<clipPath id="clip0_933_30019">
<rect width="430" height="932" fill="white"/>
</clipPath>
</defs>
</svg>
