<svg width="59" height="150" viewBox="0 0 59 150" fill="none" xmlns="http://www.w3.org/2000/svg">
<path d="M19.0173 51.4132L13.867 44.3744C13.2375 43.5733 13.1516 42.7435 13.6095 41.8851C14.0673 40.9695 14.8112 40.5117 15.8412 40.5117H18.2447C19.7326 40.5117 21.1346 40.8837 22.4508 41.6276C23.767 42.3715 24.8256 43.373 25.6268 44.632L29.4037 50.8123C29.4037 50.8695 29.4609 50.8981 29.5754 50.8981C29.6898 50.8981 29.747 50.8695 29.747 50.8123L33.5239 44.632C34.2679 43.373 35.2979 42.3715 36.6141 41.6276C37.9303 40.8837 39.3609 40.5117 40.906 40.5117H43.3095C44.3395 40.5117 45.0549 40.9695 45.4554 41.8851C45.9132 42.7435 45.856 43.5733 45.2838 44.3744L40.1335 51.4132C38.1878 54.0455 35.6127 55.3617 32.408 55.3617H26.7427C23.4809 55.3617 20.9057 54.0455 19.0173 51.4132Z" fill="#469001"/>
<path d="M11.0488 15V3.72656H12.7988L18.8457 12.2031L17.4551 11.4922H18.4629V3.72656H20.4004V15H18.6582L12.6113 6.51562L14.002 7.22656H12.9941V15H11.0488ZM25.3145 15.1406C24.778 15.1406 24.2962 15.0365 23.8691 14.8281C23.4473 14.6198 23.1139 14.3255 22.8691 13.9453C22.6296 13.5599 22.5098 13.1068 22.5098 12.5859V12.5703C22.5098 12.0651 22.6348 11.6302 22.8848 11.2656C23.1348 10.8958 23.502 10.6068 23.9863 10.3984C24.4707 10.1901 25.0592 10.0677 25.752 10.0312L28.9082 9.83594V11.1172L26.0254 11.3047C25.4785 11.3359 25.0749 11.4505 24.8145 11.6484C24.554 11.8464 24.4238 12.1224 24.4238 12.4766V12.4922C24.4238 12.8568 24.5618 13.1406 24.8379 13.3438C25.1191 13.5469 25.4759 13.6484 25.9082 13.6484C26.2988 13.6484 26.6478 13.5703 26.9551 13.4141C27.2624 13.2578 27.5046 13.0469 27.6816 12.7812C27.8587 12.5104 27.9473 12.2057 27.9473 11.8672V9.16406C27.9473 8.73698 27.8118 8.41146 27.541 8.1875C27.2702 7.95833 26.8691 7.84375 26.3379 7.84375C25.8952 7.84375 25.5332 7.92188 25.252 8.07812C24.9707 8.22917 24.7806 8.44531 24.6816 8.72656L24.6738 8.75781H22.8379L22.8457 8.6875C22.9082 8.20833 23.0957 7.78906 23.4082 7.42969C23.7207 7.07031 24.1348 6.79167 24.6504 6.59375C25.166 6.39583 25.7598 6.29688 26.4316 6.29688C27.1712 6.29688 27.7962 6.41146 28.3066 6.64062C28.8171 6.86458 29.2051 7.19271 29.4707 7.625C29.7363 8.05208 29.8691 8.5651 29.8691 9.16406V15H27.9473V13.8281H27.8145C27.6582 14.099 27.4551 14.3333 27.2051 14.5312C26.9603 14.7292 26.679 14.8802 26.3613 14.9844C26.0436 15.0885 25.6947 15.1406 25.3145 15.1406ZM35.2832 15.1406C34.5749 15.1406 33.9577 14.9635 33.4316 14.6094C32.9056 14.25 32.4993 13.7396 32.2129 13.0781C31.9264 12.4167 31.7832 11.638 31.7832 10.7422V10.7266C31.7832 9.82031 31.9238 9.03906 32.2051 8.38281C32.4915 7.72135 32.8952 7.21354 33.416 6.85938C33.9421 6.5 34.5645 6.32031 35.2832 6.32031C35.6738 6.32031 36.0384 6.38281 36.377 6.50781C36.7155 6.6276 37.0124 6.79948 37.2676 7.02344C37.528 7.2474 37.7311 7.51302 37.877 7.82031H38.0176V3.15625H39.9551V15H38.0176V13.6641H37.877C37.7207 13.9714 37.515 14.237 37.2598 14.4609C37.0098 14.6797 36.7181 14.849 36.3848 14.9688C36.0514 15.0833 35.6842 15.1406 35.2832 15.1406ZM35.8926 13.5C36.3353 13.5 36.7155 13.3906 37.0332 13.1719C37.3561 12.9479 37.6035 12.6302 37.7754 12.2188C37.9525 11.8021 38.041 11.3099 38.041 10.7422V10.7266C38.041 10.1536 37.9525 9.66146 37.7754 9.25C37.6035 8.83854 37.3561 8.52083 37.0332 8.29688C36.7155 8.07292 36.3353 7.96094 35.8926 7.96094C35.4551 7.96094 35.0749 8.07292 34.752 8.29688C34.4342 8.51562 34.1895 8.83333 34.0176 9.25C33.8457 9.66146 33.7598 10.1536 33.7598 10.7266V10.7422C33.7598 11.3151 33.8457 11.8073 34.0176 12.2188C34.1895 12.6302 34.4342 12.9479 34.752 13.1719C35.0697 13.3906 35.4499 13.5 35.8926 13.5ZM44.7363 15.1406C44.1999 15.1406 43.7181 15.0365 43.291 14.8281C42.8691 14.6198 42.5358 14.3255 42.291 13.9453C42.0514 13.5599 41.9316 13.1068 41.9316 12.5859V12.5703C41.9316 12.0651 42.0566 11.6302 42.3066 11.2656C42.5566 10.8958 42.9238 10.6068 43.4082 10.3984C43.8926 10.1901 44.4811 10.0677 45.1738 10.0312L48.3301 9.83594V11.1172L45.4473 11.3047C44.9004 11.3359 44.4967 11.4505 44.2363 11.6484C43.9759 11.8464 43.8457 12.1224 43.8457 12.4766V12.4922C43.8457 12.8568 43.9837 13.1406 44.2598 13.3438C44.541 13.5469 44.8978 13.6484 45.3301 13.6484C45.7207 13.6484 46.0697 13.5703 46.377 13.4141C46.6842 13.2578 46.9264 13.0469 47.1035 12.7812C47.2806 12.5104 47.3691 12.2057 47.3691 11.8672V9.16406C47.3691 8.73698 47.2337 8.41146 46.9629 8.1875C46.6921 7.95833 46.291 7.84375 45.7598 7.84375C45.3171 7.84375 44.9551 7.92188 44.6738 8.07812C44.3926 8.22917 44.2025 8.44531 44.1035 8.72656L44.0957 8.75781H42.2598L42.2676 8.6875C42.3301 8.20833 42.5176 7.78906 42.8301 7.42969C43.1426 7.07031 43.5566 6.79167 44.0723 6.59375C44.5879 6.39583 45.1816 6.29688 45.8535 6.29688C46.5931 6.29688 47.2181 6.41146 47.7285 6.64062C48.2389 6.86458 48.627 7.19271 48.8926 7.625C49.1582 8.05208 49.291 8.5651 49.291 9.16406V15H47.3691V13.8281H47.2363C47.0801 14.099 46.877 14.3333 46.627 14.5312C46.3822 14.7292 46.1009 14.8802 45.7832 14.9844C45.4655 15.0885 45.1165 15.1406 44.7363 15.1406Z" fill="#469001"/>
<path d="M2.5 36.6265V30.7996C2.5 29.5736 3.49382 28.5798 4.71977 28.5798H54.2484C55.4743 28.5798 56.4682 29.5736 56.4682 30.7996V36.6265" stroke="#469001" stroke-width="3.32966" stroke-linecap="round"/>
<path d="M28.4807 65.3618H30.7125C32.0286 65.3618 33.1732 65.8482 34.146 66.8211C35.1188 67.7939 35.6052 68.9384 35.6052 70.2546V105.105C35.6052 106.421 35.1188 107.566 34.146 108.538C33.1732 109.511 32.0286 109.998 30.7125 109.998H28.4807C27.1645 109.998 26.02 109.511 25.0471 108.538C24.0743 107.566 23.5879 106.421 23.5879 105.105V70.2546C23.5879 68.9384 24.0743 67.7939 25.0471 66.8211C26.02 65.8482 27.1645 65.3618 28.4807 65.3618Z" fill="#F57C00"/>
<path d="M12.2031 145.253V133.98H19.3906V135.675H14.2188V139.011H18.9453V140.652H14.2188V145.253H12.2031ZM21.4453 145.253V136.714H23.3828V145.253H21.4453ZM22.4219 135.284C22.1042 135.284 21.8307 135.172 21.6016 134.948C21.3724 134.725 21.2578 134.456 21.2578 134.144C21.2578 133.821 21.3724 133.55 21.6016 133.331C21.8307 133.107 22.1042 132.995 22.4219 132.995C22.7396 132.995 23.0104 133.107 23.2344 133.331C23.4635 133.55 23.5781 133.821 23.5781 134.144C23.5781 134.456 23.4635 134.725 23.2344 134.948C23.0104 135.172 22.7396 135.284 22.4219 135.284ZM25.7812 145.253V136.714H27.7266V138.027H27.8594C28.0625 137.563 28.3698 137.201 28.7812 136.941C29.1927 136.68 29.7057 136.55 30.3203 136.55C31.2734 136.55 32.0026 136.826 32.5078 137.378C33.013 137.93 33.2656 138.714 33.2656 139.73V145.253H31.3203V140.183C31.3203 139.516 31.1797 139.016 30.8984 138.683C30.6224 138.35 30.1901 138.183 29.6016 138.183C29.2161 138.183 28.8828 138.269 28.6016 138.441C28.3203 138.613 28.1042 138.855 27.9531 139.167C27.8021 139.48 27.7266 139.85 27.7266 140.277V145.253H25.7812ZM37.8906 145.394C37.3542 145.394 36.8724 145.29 36.4453 145.081C36.0234 144.873 35.6901 144.579 35.4453 144.198C35.2057 143.813 35.0859 143.36 35.0859 142.839V142.823C35.0859 142.318 35.2109 141.883 35.4609 141.519C35.7109 141.149 36.0781 140.86 36.5625 140.652C37.0469 140.443 37.6354 140.321 38.3281 140.284L41.4844 140.089V141.37L38.6016 141.558C38.0547 141.589 37.651 141.704 37.3906 141.902C37.1302 142.1 37 142.376 37 142.73V142.745C37 143.11 37.138 143.394 37.4141 143.597C37.6953 143.8 38.0521 143.902 38.4844 143.902C38.875 143.902 39.224 143.823 39.5312 143.667C39.8385 143.511 40.0807 143.3 40.2578 143.034C40.4349 142.764 40.5234 142.459 40.5234 142.12V139.417C40.5234 138.99 40.388 138.665 40.1172 138.441C39.8464 138.212 39.4453 138.097 38.9141 138.097C38.4714 138.097 38.1094 138.175 37.8281 138.331C37.5469 138.482 37.3568 138.698 37.2578 138.98L37.25 139.011H35.4141L35.4219 138.941C35.4844 138.462 35.6719 138.042 35.9844 137.683C36.2969 137.323 36.7109 137.045 37.2266 136.847C37.7422 136.649 38.3359 136.55 39.0078 136.55C39.7474 136.55 40.3724 136.665 40.8828 136.894C41.3932 137.118 41.7812 137.446 42.0469 137.878C42.3125 138.305 42.4453 138.818 42.4453 139.417V145.253H40.5234V144.081H40.3906C40.2344 144.352 40.0312 144.587 39.7812 144.784C39.5365 144.982 39.2552 145.133 38.9375 145.238C38.6198 145.342 38.2708 145.394 37.8906 145.394ZM44.8594 145.253V133.409H46.8047V145.253H44.8594Z" fill="#F57C00"/>
<path d="M2.5 118.877V124.704C2.5 125.93 3.49382 126.924 4.71977 126.924H54.2484C55.4743 126.924 56.4682 125.93 56.4682 124.704V118.877" stroke="#F57C00" stroke-width="3.32966" stroke-linecap="round"/>
</svg>
