<svg width="48" height="49" viewBox="0 0 48 49" fill="none" xmlns="http://www.w3.org/2000/svg">
<path fill-rule="evenodd" clip-rule="evenodd" d="M24.1875 12.7737C24.0876 6.28476 18.7963 1.0553 12.2835 1.0553C5.70838 1.0553 0.378155 6.38552 0.378155 12.9607C0.378155 18.7443 4.50232 23.5647 9.97024 24.6415C4.31543 25.5658 0 30.4741 0 36.3904C0 42.9655 5.33022 48.2958 11.9054 48.2958C18.4167 48.2958 23.7072 43.0685 23.8093 36.5815C23.8104 36.5815 23.8114 36.5816 23.8125 36.5816C23.9147 43.0686 29.2051 48.2958 35.7164 48.2958C42.2916 48.2958 47.6218 42.9655 47.6218 36.3904C47.6218 30.6067 43.4977 25.7864 38.0298 24.7096C43.6846 23.7853 48.0001 18.8769 48.0001 12.9607C48.0001 6.38552 42.6698 1.0553 36.0947 1.0553C29.582 1.0553 24.2906 6.28479 24.1907 12.7737L24.1875 12.7737Z" fill="#FF9800"/>
</svg>
