<svg width="337" height="225" viewBox="0 0 337 225" fill="none" xmlns="http://www.w3.org/2000/svg">
<path d="M118.788 86.447C118.788 86.447 112.776 95.4884 115.579 107.093C118.382 118.698 130.824 123.396 130.824 123.396" stroke="black" stroke-width="3" stroke-linecap="round"/>
<ellipse cx="5.53111" cy="6.57805" rx="5.53111" ry="6.57805" transform="matrix(-0.8913 -0.453414 -0.453414 0.8913 129.25 86.0658)" fill="black"/>
<path d="M178.88 153.981C178.88 153.981 177.682 166.794 178.88 174.859C179.833 181.275 183.098 190.053 184.511 193.659C184.82 194.448 184.239 195.308 183.392 195.308H178.88" stroke="black" stroke-width="3" stroke-linecap="round"/>
<path d="M154.286 155.125C154.286 155.125 153.089 167.938 154.286 176.003C155.239 182.419 158.504 191.197 159.917 194.803C160.227 195.592 159.645 196.452 158.798 196.452H154.286" stroke="black" stroke-width="3" stroke-linecap="round"/>
<circle cx="50.1934" cy="50.1934" r="50.1934" transform="matrix(-1 0 0 1 221.84 73.9423)" fill="#F57C00"/>
<path d="M123.455 110.837C118.164 130.571 133.625 150.862 148.909 160.458C164.051 169.964 176.222 171.183 187.663 170.754C199.103 170.325 221.84 151.857 221.84 124.136C221.84 96.4146 199.367 73.9423 171.646 73.9423C143.925 73.9423 128.746 91.1024 123.455 110.837Z" fill="#FF9800"/>
<ellipse cx="12.2981" cy="8.72307" rx="12.2981" ry="8.72307" transform="matrix(-0.99238 -0.123214 -0.123214 0.99238 190.18 116.685)" fill="#F56200"/>
<ellipse cx="2.81523" cy="2.71702" rx="2.81523" ry="2.71702" transform="matrix(-1 0 0 1 149.48 83.9523)" fill="#FFB74D"/>
<ellipse cx="2.81523" cy="2.71702" rx="2.81523" ry="2.71702" transform="matrix(1 0 0 -1 195.812 156.025)" fill="#FFB74D"/>
<ellipse cx="1.57301" cy="1.43001" rx="1.57301" ry="1.43001" transform="matrix(-1 0 0 1 147.766 92.2468)" fill="#FFB74D"/>
<ellipse cx="1.57301" cy="1.43001" rx="1.57301" ry="1.43001" transform="matrix(1 0 0 -1 197.531 147.731)" fill="#FFB74D"/>
<ellipse cx="2.14502" cy="2.00202" rx="2.14502" ry="2.00202" transform="matrix(-1 0 0 1 142.332 88.5288)" fill="#FFB74D"/>
<ellipse cx="2.14502" cy="2.00202" rx="2.14502" ry="2.00202" transform="matrix(1 0 0 -1 202.965 151.449)" fill="#FFB74D"/>
<circle cx="9.56518" cy="9.56518" r="9.56518" transform="matrix(-0.980262 -0.197704 -0.197704 0.980262 184.078 102.33)" fill="black"/>
<path d="M182.187 111.707C181.143 116.885 176.054 120.808 169.58 118.922C169.58 118.922 173.94 115.735 175.155 110.288C176.37 104.841 173.809 100.259 173.809 100.259C180.016 101.162 183.232 106.528 182.187 111.707Z" fill="white"/>
<ellipse cx="12.2981" cy="8.72307" rx="12.2981" ry="8.72307" transform="matrix(-0.99238 -0.123214 -0.123214 0.99238 148.422 114.969)" fill="#F56200"/>
<circle cx="9.56518" cy="9.56518" r="9.56518" transform="matrix(-1 0 0 1 144.875 100.251)" fill="black"/>
<path d="M144.875 109.815C144.875 115.098 140.662 119.95 133.943 119.381C133.943 119.381 137.587 115.395 137.701 109.815C137.815 104.236 134.399 100.25 134.399 100.25C140.662 99.9086 144.875 104.533 144.875 109.815Z" fill="white"/>
<path d="M153.629 126.523C150.005 126.599 148.572 124.012 148.029 122.382C147.805 121.709 148.34 121.091 149.049 121.091H158.292C159.038 121.091 159.578 121.768 159.286 122.454C158.61 124.04 157.027 126.452 153.629 126.523Z" fill="black"/>
<path d="M223.74 73.3907C224.356 68.6124 217.008 57.8174 213.191 52.5853C212.171 51.1876 210.078 51.3805 209.304 52.9277C207.301 56.9303 204.032 63.6329 202.572 67.5675C200.39 73.4459 202.506 80.5237 210.243 82.095C217.98 83.6662 222.912 79.8214 223.74 73.3907Z" fill="#469001"/>
<path d="M225.507 89.7745C229.365 88.4289 235.748 83.2278 239.213 80.2442C240.319 79.2914 239.957 77.545 238.561 77.1146C234.096 75.7374 225.918 73.4807 221.978 74.078C216.399 74.9236 212.131 78.7453 213.262 84.4874C214.393 90.2296 220.009 91.6922 225.507 89.7745Z" fill="#58B006" fill-opacity="0.8"/>
<path d="M205.071 86.9216C205.071 86.9216 211.083 95.9629 208.28 107.568C205.477 119.173 193.036 123.87 193.036 123.87" stroke="black" stroke-width="3" stroke-linecap="round"/>
<ellipse cx="202.522" cy="89.8956" rx="5.53111" ry="6.57805" transform="rotate(-26.963 202.522 89.8956)" fill="black"/>
<path d="M163.176 42.9478C160.715 50.8243 168.283 59.3105 168.283 59.3105L175.007 61.7462C175.007 61.7462 185.523 57.0793 187.089 50.3719C188.655 43.6645 186.984 35.5896 179.794 33.3745C172.604 31.1593 165.637 35.0714 163.176 42.9478Z" fill="#FFDA13"/>
<path d="M166.792 62.3485C166.364 60.162 168.268 58.2291 170.46 58.6237L174.742 59.3942C177.168 59.831 178.187 62.751 176.559 64.6025L176.007 65.229C175.249 66.0918 174.082 66.4759 172.959 66.2325L169.349 65.4502C168.113 65.1823 167.155 64.2046 166.912 62.9633L166.792 62.3485Z" fill="#525FE1"/>
<path d="M168.62 66.0118C168.541 64.9754 169.464 64.1448 170.487 64.3311L171.939 64.5959C173.157 64.8178 173.686 66.2679 172.897 67.2215C172.507 67.6931 171.884 67.9046 171.288 67.7683L169.848 67.4391C169.17 67.2841 168.672 66.7055 168.62 66.0118Z" fill="#525FE1"/>
<ellipse cx="169.497" cy="42.2407" rx="3.00302" ry="4.43303" transform="rotate(29.3751 169.497 42.2407)" fill="#FFFDD3"/>
<path d="M132.208 47.547C132.064 46.3509 132.554 45.1396 133.623 44.5847C134.15 44.3112 134.727 44.073 135.231 44.0063C135.68 43.947 136.215 44.0045 136.736 44.1104C138.083 44.3844 138.888 45.6846 138.902 47.0593C138.922 49.0153 139.003 51.8485 139.277 53.9665C139.561 56.1647 140.144 59.532 140.48 61.4173C140.635 62.284 140.313 63.168 139.634 63.7287C138.411 64.7394 136.57 64.3215 135.945 62.8626C134.799 60.1839 133.256 56.293 133.008 54.221C132.76 52.1564 132.427 49.3806 132.208 47.547Z" fill="#F57C00"/>
<circle cx="140.7" cy="68.6528" r="2.44581" fill="#F57C00"/>
<path d="M117.995 62.9653C117.415 61.9486 117.361 60.6669 118.128 59.7829C118.381 59.4924 118.658 59.2286 118.938 59.0639C119.17 58.9276 119.458 58.8269 119.763 58.7526C121.056 58.4382 122.259 59.3391 122.8 60.5543C123.476 62.0718 124.444 64.1447 125.323 65.6523C126.304 67.3355 127.935 69.8892 128.81 71.2452C129.18 71.8188 129.225 72.5424 128.927 73.1565C128.355 74.3355 126.81 74.6191 125.882 73.6947C124.12 71.9404 121.636 69.3395 120.745 67.7798C119.9 66.3013 118.778 64.3361 117.995 62.9653Z" fill="#F57C00"/>
<ellipse cx="131.067" cy="76.4835" rx="1.99101" ry="1.9651" transform="rotate(-22.8956 131.067 76.4835)" fill="#F57C00"/>
<rect x="85.9844" y="17.0296" width="10.9506" height="10.9506" rx="1.40325" transform="rotate(-66.3351 85.9844 17.0296)" fill="#FF3330" fill-opacity="0.5"/>
<path d="M34.04 70.0185C30.7301 67.9208 26.4052 68.7347 24.0669 71.7872C23.8403 72.0831 23.9359 72.5025 24.2507 72.702L35.7923 80.0166C36.1071 80.2161 36.5272 80.1235 36.698 79.7922C38.4603 76.3746 37.35 72.1162 34.04 70.0185Z" fill="#525FE1"/>
<path d="M238.323 10.3593C241.633 12.457 245.958 11.6431 248.296 8.59058C248.523 8.29473 248.427 7.87528 248.113 7.67579L236.571 0.361211C236.256 0.161718 235.836 0.254332 235.665 0.585561C233.903 4.00314 235.013 8.26159 238.323 10.3593Z" fill="#525FE1"/>
<path fill-rule="evenodd" clip-rule="evenodd" d="M66.3399 122.489C67.4895 121.594 67.8549 119.974 67.1343 118.654C66.3339 117.188 64.4967 116.649 63.0309 117.449C61.5791 118.242 61.036 120.052 61.8035 121.511L61.8029 121.511C60.9907 120.077 59.1746 119.555 57.7227 120.348C56.2569 121.148 55.7175 122.985 56.5179 124.451C57.2224 125.741 58.7299 126.314 60.0805 125.887C58.9309 126.781 58.5656 128.402 59.2862 129.721C60.0866 131.187 61.9237 131.726 63.3895 130.926C64.8414 130.133 65.3844 128.323 64.6168 126.865C64.617 126.864 64.6172 126.864 64.6174 126.864C65.4296 128.299 67.2458 128.82 68.6977 128.028C70.1635 127.227 70.703 125.39 69.9026 123.924C69.1981 122.634 67.6906 122.062 66.3399 122.489Z" fill="#FFDA13"/>
<circle cx="267.984" cy="193.5" r="3.42857" stroke="#77BE36" stroke-width="1.14286"/>
<circle cx="86.9844" cy="221" r="3.42857" stroke="#FF3330" stroke-width="1.14286"/>
<path fill-rule="evenodd" clip-rule="evenodd" d="M283.103 136.903C283.57 137.279 285.164 138.185 286.168 138.707C285.131 138.382 283.482 137.927 282.757 137.784C281.659 137.567 279.984 137.513 279.984 139.043C279.984 140.56 281.845 140.359 282.735 140.264L282.757 140.261C283.28 140.205 284.704 139.824 285.775 139.501C284.789 140.03 283.513 140.767 283.103 141.097L283.086 141.111C282.389 141.673 280.932 142.847 282.004 143.919C283.086 145.001 284.232 143.779 284.855 142.849C285.267 142.236 286.11 140.747 286.614 139.784C286.273 140.864 285.787 142.631 285.723 143.227L285.721 143.25C285.625 144.139 285.424 146 286.942 146C288.471 146 288.417 144.326 288.201 143.227C288.058 142.503 287.602 140.854 287.278 139.817C287.8 140.821 288.706 142.415 289.082 142.882L289.096 142.899C289.657 143.596 290.831 145.053 291.904 143.981C292.986 142.899 291.763 141.753 290.834 141.13C290.219 140.718 288.728 139.873 287.766 139.369C288.845 139.71 290.615 140.197 291.212 140.261L291.234 140.264C292.124 140.359 293.984 140.56 293.984 139.043C293.984 137.513 292.31 137.567 291.212 137.784C290.351 137.953 288.187 138.564 287.292 138.873C288.143 138.458 290.105 137.36 290.834 136.871C291.763 136.248 292.986 135.102 291.904 134.02C290.831 132.947 289.657 134.405 289.096 135.102L289.082 135.119C288.705 135.586 287.799 137.181 287.277 138.185C287.601 137.148 288.058 135.498 288.201 134.772C288.417 133.674 288.471 132 286.942 132C285.424 132 285.625 133.86 285.721 134.75L285.723 134.772C285.787 135.369 286.274 137.136 286.614 138.216C286.111 137.253 285.267 135.764 284.855 135.151C284.232 134.221 283.086 132.999 282.004 134.081C280.932 135.153 282.389 136.327 283.086 136.889L283.103 136.903Z" fill="#FF3330"/>
<path fill-rule="evenodd" clip-rule="evenodd" d="M63.9014 176.207C65.3131 177.879 67.7935 178.224 69.6182 176.942C67.7935 178.224 67.2776 180.675 68.3717 182.57C68.4778 182.754 68.7191 182.795 68.8926 182.673L75.2553 178.203C75.4288 178.081 75.4718 177.84 75.335 177.678C73.9233 176.006 71.4429 175.66 69.6182 176.942C71.4429 175.66 71.9589 173.21 70.8647 171.315C70.7587 171.131 70.5174 171.09 70.3438 171.212L63.9811 175.682C63.8076 175.804 63.7646 176.045 63.9014 176.207Z" fill="#77BE36"/>
<path fill-rule="evenodd" clip-rule="evenodd" d="M292.984 63.2414C295.518 61.3148 297.925 60.5215 298.694 61.2904C299.464 62.0608 298.666 64.4757 296.732 67.0145C298.63 69.5748 299.366 72.0368 298.694 72.7094C298.02 73.3833 295.55 72.6425 292.984 70.7366C290.419 72.6424 287.949 73.3831 287.275 72.7092C286.602 72.0366 287.339 69.5748 289.237 67.0145C287.302 64.4758 286.505 62.061 287.275 61.2906C288.044 60.5217 290.451 61.3149 292.984 63.2414Z" fill="#FFDA13"/>
<path fill-rule="evenodd" clip-rule="evenodd" d="M331.094 102.995C328.79 102.79 326.984 100.855 326.984 98.4984C326.984 96.1415 328.79 94.2064 331.094 94.0013C331.317 93.9815 331.499 94.1651 331.499 94.3892V102.608C331.499 102.832 331.317 103.015 331.094 102.995ZM335.609 102.995C333.305 102.79 331.499 100.855 331.499 98.4984C331.499 96.1415 333.305 94.2064 335.609 94.0013C335.832 93.9815 336.014 94.1651 336.014 94.3892V102.608C336.014 102.832 335.832 103.015 335.609 102.995Z" fill="#469001"/>
<path d="M324.838 176.47C325.202 176.129 325.767 176.129 326.131 176.47L332.83 182.742C333.456 183.328 333.041 184.378 332.183 184.378H318.786C317.928 184.378 317.513 183.328 318.139 182.742L324.838 176.47Z" fill="#E8828C"/>
<path d="M103.533 183.605C103.897 183.265 104.462 183.265 104.826 183.605L111.525 189.877C112.151 190.463 111.736 191.514 110.879 191.514H97.4809C96.623 191.514 96.2081 190.463 96.8343 189.877L103.533 183.605Z" fill="#E8828C"/>
<rect x="304.113" y="5" width="2.48924" height="9.33464" rx="1.24462" fill="#525FE1"/>
<rect x="290.113" y="12.4051" width="2.48924" height="9.33464" rx="1.24462" transform="rotate(-49.3854 290.113 12.4051)" fill="#525FE1"/>
<rect x="287.535" y="29.8863" width="2.48924" height="9.33464" rx="1.24462" transform="rotate(-110.055 287.535 29.8863)" fill="#525FE1"/>
<rect x="297.676" y="41.8433" width="2.48924" height="9.33464" rx="1.24462" transform="rotate(-149.637 297.676 41.8433)" fill="#525FE1"/>
<rect width="2.48924" height="9.33464" rx="1.24462" transform="matrix(0.862837 -0.505482 -0.505482 -0.862837 313.5 41.8433)" fill="#525FE1"/>
<rect width="2.48924" height="9.33464" rx="1.24462" transform="matrix(0.342925 -0.939363 -0.939363 -0.342925 322.219 29.8863)" fill="#525FE1"/>
<rect width="2.48924" height="9.33464" rx="1.24462" transform="matrix(-0.650968 -0.759105 -0.759105 0.650968 319.992 12.4051)" fill="#525FE1"/>
<rect x="15.6289" y="142" width="2.09076" height="7.84035" rx="1.04538" fill="#FF9800"/>
<rect x="3.86719" y="148.22" width="2.09076" height="7.84035" rx="1.04538" transform="rotate(-49.3854 3.86719 148.22)" fill="#FF9800"/>
<rect x="1.70312" y="162.902" width="2.09076" height="7.84035" rx="1.04538" transform="rotate(-110.055 1.70312 162.902)" fill="#FF9800"/>
<rect x="10.2227" y="172.945" width="2.09076" height="7.84035" rx="1.04538" transform="rotate(-149.637 10.2227 172.945)" fill="#FF9800"/>
<rect width="2.09076" height="7.84035" rx="1.04538" transform="matrix(0.862837 -0.505482 -0.505482 -0.862837 23.5117 172.945)" fill="#FF9800"/>
<rect width="2.09076" height="7.84035" rx="1.04538" transform="matrix(0.342925 -0.939363 -0.939363 -0.342925 30.832 162.902)" fill="#FF9800"/>
<rect width="2.09076" height="7.84035" rx="1.04538" transform="matrix(-0.650968 -0.759105 -0.759105 0.650968 28.9648 148.22)" fill="#FF9800"/>
<rect x="230.543" y="181" width="2.69355" height="10.1008" rx="1.34678" fill="#FF3330"/>
<rect x="215.395" y="189.013" width="2.69355" height="10.1008" rx="1.34678" transform="rotate(-49.3854 215.395 189.013)" fill="#FF3330"/>
<rect x="212.602" y="207.929" width="2.69355" height="10.1008" rx="1.34678" transform="rotate(-110.055 212.602 207.929)" fill="#FF3330"/>
<rect x="223.578" y="220.867" width="2.69355" height="10.1008" rx="1.34678" transform="rotate(-149.637 223.578 220.867)" fill="#FF3330"/>
<rect width="2.69355" height="10.1008" rx="1.34678" transform="matrix(0.862837 -0.505482 -0.505482 -0.862837 240.699 220.867)" fill="#FF3330"/>
<rect width="2.69355" height="10.1008" rx="1.34678" transform="matrix(0.342925 -0.939363 -0.939363 -0.342925 250.133 207.929)" fill="#FF3330"/>
<rect width="2.69355" height="10.1008" rx="1.34678" transform="matrix(-0.650968 -0.759105 -0.759105 0.650968 247.727 189.013)" fill="#FF3330"/>
<path fill-rule="evenodd" clip-rule="evenodd" d="M67.6289 58.0996C68.3753 57.1061 68.175 55.6957 67.1815 54.9493C66.188 54.2029 64.7776 54.4032 64.0312 55.3967C63.2848 56.3902 63.4851 57.8006 64.4786 58.547C65.4721 59.2934 66.8825 59.0931 67.6289 58.0996ZM70.3393 54.4923C71.0772 53.4993 70.8749 52.0956 69.8846 51.3516C68.8911 50.6052 67.4807 50.8055 66.7343 51.799C65.9879 52.7925 66.1882 54.203 67.1817 54.9494C68.172 55.6934 69.5765 55.4967 70.3248 54.5116C69.5869 55.5045 69.7891 56.9083 70.7794 57.6523C71.7729 58.3987 73.1834 58.1984 73.9298 57.2049C74.6762 56.2114 74.4759 54.8009 73.4824 54.0545C72.4921 53.3105 71.0875 53.5071 70.3393 54.4923ZM70.7794 57.6523C71.7729 58.3987 71.9732 59.8092 71.2268 60.8027C70.4804 61.7962 69.07 61.9965 68.0765 61.2501C67.083 60.5037 66.8827 59.0932 67.6291 58.0997C68.3755 57.1062 69.7859 56.9059 70.7794 57.6523Z" fill="#469001"/>
</svg>
