<svg width="48" height="49" viewBox="0 0 48 49" fill="none" xmlns="http://www.w3.org/2000/svg">
<path fill-rule="evenodd" clip-rule="evenodd" d="M48 10.1595C48 13.1547 44.247 15.8147 38.4409 17.4896C44.247 19.1645 48 21.8245 48 24.8197C48 27.8154 44.2456 30.4758 38.4378 32.1506C44.2456 33.8255 48 36.4859 48 39.4816C48 44.5496 37.2548 48.6581 24 48.6581C10.7452 48.6581 0 44.5496 0 39.4816C0 36.4859 3.75437 33.8255 9.56223 32.1506C3.75437 30.4758 0 27.8154 0 24.8197C0 21.8245 3.75303 19.1645 9.55911 17.4896C3.75303 15.8147 0 13.1547 0 10.1595C0 5.09148 10.7452 0.983032 24 0.983032C37.2548 0.983032 48 5.09148 48 10.1595Z" fill="#469001"/>
</svg>
