<svg width="41" height="45" viewBox="0 0 41 45" fill="none" xmlns="http://www.w3.org/2000/svg">
<path d="M24.1473 31.8176C24.1473 31.8176 24.0325 35.6076 24.4499 37.9888C24.7222 39.5417 25.4139 41.5975 25.8606 42.8359C26.0493 43.3587 25.664 43.9196 25.1082 43.9196H23.8447" stroke="black" stroke-width="2" stroke-linecap="round"/>
<path d="M16.2801 31.8979C16.2801 31.8979 16.1653 35.6879 16.5828 38.0692C16.855 39.622 17.5467 41.6778 17.9935 42.9162C18.1821 43.4391 17.7968 43.9999 17.241 43.9999H15.9775" stroke="black" stroke-width="2" stroke-linecap="round"/>
<path d="M2.61542 17.7849C2.61542 17.7849 3.4846 25.4085 7.04838 25.9375C10.6122 26.4665 10.4415 24.0262 10.4415 24.0262" stroke="black" stroke-width="2" stroke-linecap="round"/>
<ellipse cx="15.1739" cy="14.0656" rx="15.1739" ry="14.0656" transform="matrix(-1 0 0 1 33.5312 7.0647)" fill="#F57C00"/>
<path d="M3.78861 17.4035C2.18908 22.9335 6.86296 28.6197 11.4837 31.3088C16.0611 33.9726 19.7407 34.3142 23.1991 34.194C26.6576 34.0738 33.5312 28.8985 33.5312 21.1303C33.5312 13.3621 26.7376 7.0647 18.3573 7.0647C9.97698 7.0647 5.38814 11.8734 3.78861 17.4035Z" fill="#FF9800"/>
<ellipse cx="3.71386" cy="2.44748" rx="3.71386" ry="2.44748" transform="matrix(-0.993442 -0.114336 -0.132758 0.991148 23.957 19.0425)" fill="#F56200"/>
<ellipse cx="0.85107" cy="0.761384" rx="0.85107" ry="0.761384" transform="matrix(-1 0 0 1 11.6562 9.86938)" fill="#FFB74D"/>
<ellipse cx="0.85107" cy="0.761384" rx="0.85107" ry="0.761384" transform="matrix(1 0 0 -1 25.6602 30.0664)" fill="#FFB74D"/>
<ellipse cx="0.475536" cy="0.400728" rx="0.475536" ry="0.400728" transform="matrix(-1 0 0 1 11.1367 12.1938)" fill="#FFB74D"/>
<ellipse cx="0.475536" cy="0.400728" rx="0.475536" ry="0.400728" transform="matrix(1 0 0 -1 26.1797 27.7424)" fill="#FFB74D"/>
<ellipse cx="0.648459" cy="0.56102" rx="0.648459" ry="0.56102" transform="matrix(-1 0 0 1 9.49219 11.1523)" fill="#FFB74D"/>
<ellipse cx="0.648459" cy="0.56102" rx="0.648459" ry="0.56102" transform="matrix(1 0 0 -1 27.8203 28.7844)" fill="#FFB74D"/>
<ellipse cx="2.88368" cy="2.689" rx="2.88368" ry="2.689" transform="matrix(-0.982969 -0.183769 -0.212604 0.977138 22.1133 15.02)" fill="black"/>
<path d="M21.5405 17.6475C21.2248 19.0987 19.6862 20.198 17.7293 19.6694C17.7293 19.6694 19.0474 18.7765 19.4146 17.2501C19.7818 15.7237 19.0077 14.4396 19.0077 14.4396C20.8841 14.6928 21.8563 16.1964 21.5405 17.6475Z" fill="white"/>
<ellipse cx="3.71386" cy="2.44748" rx="3.71386" ry="2.44748" transform="matrix(-0.993442 -0.114336 -0.132758 0.991148 11.4219 18.5615)" fill="#F56200"/>
<ellipse cx="2.89165" cy="2.68043" rx="2.89165" ry="2.68043" transform="matrix(-1 0 0 1 10.0039 14.4368)" fill="black"/>
<path d="M10.0039 17.1173C10.0039 18.5977 8.73021 19.9573 6.69917 19.7977C6.69917 19.7977 7.80075 18.6809 7.83517 17.1173C7.8696 15.5537 6.83687 14.4369 6.83687 14.4369C8.73021 14.3411 10.0039 15.6369 10.0039 17.1173Z" fill="white"/>
<path d="M13.4397 21.8792C13.9649 21.8894 14.338 21.7281 14.6021 21.5071C15.1467 21.0515 14.6005 20.3569 13.8905 20.3569H13.0489C12.299 20.3569 11.7676 21.1117 12.3782 21.5469C12.6412 21.7344 12.9872 21.8705 13.4397 21.8792Z" fill="black"/>
<path d="M34.1029 6.91015C34.2255 6.02707 33.3011 4.41065 32.3264 2.9917C31.395 1.63578 29.3457 1.8673 28.5878 3.37644C28.2367 4.07561 27.9101 4.76203 27.7034 5.27835C27.0439 6.92564 27.6834 8.90902 30.0225 9.34933C32.3615 9.78965 33.8525 8.71222 34.1029 6.91015Z" fill="#469001"/>
<path d="M34.6374 11.5013C35.235 11.3081 36.033 10.8312 36.81 10.2996C38.0375 9.45989 37.6279 7.64867 36.1362 7.34453C35.1598 7.14545 34.1911 7.01548 33.5704 7.1027C31.884 7.33966 30.5936 8.41062 30.9355 10.0197C31.2774 11.6288 32.9754 12.0387 34.6374 11.5013Z" fill="#58B006"/>
<path d="M31.288 23.9973C31.288 23.9973 31.1731 27.7873 31.5906 30.1685C32.0071 32.5449 33.4062 36.0993 33.4062 36.0993" stroke="black" stroke-width="2" stroke-linecap="round"/>
<ellipse cx="1.74428" cy="1.64521" rx="1.74428" ry="1.64521" transform="matrix(0.723514 0.69031 -0.743081 0.669201 2.88281 15.4543)" fill="black"/>
<ellipse cx="1.74428" cy="1.64521" rx="1.74428" ry="1.64521" transform="matrix(0.723514 0.69031 -0.743081 0.669201 33.8164 33.7559)" fill="black"/>
</svg>
