<svg width="393" height="852" viewBox="0 0 393 852" fill="none" xmlns="http://www.w3.org/2000/svg">
<g clip-path="url(#clip0_1307_29675)">
<rect width="393" height="852" fill="white"/>
<path d="M321.396 91.0384C310.974 84.949 312.077 69.5475 323.261 65.006L327.332 63.3526C330.822 61.9355 333.626 59.2197 335.154 55.7769L337.145 51.2895C342.231 39.8287 358.466 39.7447 363.67 51.1523L365.844 55.9171C367.376 59.2751 370.128 61.9251 373.541 63.3298L377.245 64.8541C388.417 69.4522 389.437 84.8784 378.967 90.907L371.818 95.0232C369.472 96.3742 367.549 98.3534 366.267 100.738L362.879 107.037C357.427 117.173 342.921 117.261 337.346 107.193L333.689 100.586C332.422 98.2979 330.561 96.3935 328.302 95.0738L321.396 91.0384Z" fill="#F57C00" fill-opacity="0.1"/>
<path d="M354.396 621.292C343.974 615.202 345.077 599.801 356.261 595.259L360.332 593.606C363.822 592.189 366.626 589.473 368.154 586.03L370.145 581.543C375.231 570.082 391.466 569.998 396.67 581.406L398.844 586.17C400.376 589.529 403.128 592.179 406.541 593.583L410.245 595.108C421.417 599.706 422.437 615.132 411.967 621.16L404.818 625.277C402.472 626.628 400.549 628.607 399.267 630.991L395.879 637.29C390.427 647.426 375.921 647.514 370.346 637.446L366.689 630.84C365.422 628.551 363.561 626.647 361.302 625.327L354.396 621.292Z" fill="#F57C00" fill-opacity="0.1"/>
<path d="M364.594 218.897C341.924 211.369 318.034 220.645 308.328 239.772C306.817 242.749 308.572 246.203 311.741 247.255L389.985 273.238C393.154 274.29 396.626 272.573 397.197 269.283C400.86 248.149 387.264 226.425 364.594 218.897Z" fill="#F57C00" fill-opacity="0.1"/>
<path fill-rule="evenodd" clip-rule="evenodd" d="M175.651 84.9783C172.689 93.6212 176.386 102.937 184.009 107.342C175.085 105.822 166.12 110.945 163.091 119.786C159.725 129.608 164.958 140.298 174.78 143.664C184.508 146.997 195.089 141.895 198.56 132.254C198.561 132.254 198.563 132.255 198.564 132.255C195.392 141.999 200.619 152.518 210.347 155.852C220.169 159.218 230.859 153.984 234.225 144.163C237.246 135.346 233.337 125.828 225.4 121.539C231.436 120.08 236.622 115.664 238.784 109.354C242.15 99.5323 236.917 88.8419 227.095 85.4761C221.811 83.6652 216.275 84.3437 211.763 86.8868C210.358 80.7596 205.912 75.477 199.528 73.2892C189.707 69.9234 179.016 75.1568 175.651 84.9783Z" fill="#FFFDD3" fill-opacity="0.2"/>
<path fill-rule="evenodd" clip-rule="evenodd" d="M270.862 574.797C279.787 576.319 288.754 571.196 291.784 562.354C295.15 552.532 289.916 541.842 280.095 538.476C270.367 535.142 259.786 540.245 256.315 549.886L256.311 549.885C259.482 540.142 254.255 529.623 244.528 526.289C234.706 522.923 224.016 528.157 220.65 537.978C217.688 546.621 221.386 555.937 229.009 560.342C220.085 558.822 211.12 563.945 208.09 572.786C204.725 582.608 209.958 593.298 219.779 596.664C229.508 599.998 240.088 594.895 243.559 585.254C243.561 585.254 243.562 585.255 243.564 585.255C240.392 594.999 245.619 605.519 255.347 608.852C265.168 612.218 275.858 606.985 279.224 597.163C282.187 588.519 278.488 579.202 270.862 574.797Z" fill="#FFFDD3" fill-opacity="0.2"/>
<path fill-rule="evenodd" clip-rule="evenodd" d="M78.4801 72.7617C80.6486 74.5088 88.0493 78.7162 92.7121 81.1402C87.8979 79.634 80.2385 77.5169 76.8718 76.8528C71.7735 75.847 64 75.5955 64 82.6987C64 89.743 72.6378 88.8124 76.7689 88.3672L76.8718 88.3562C79.3002 88.0948 85.9129 86.3257 90.883 84.8266C86.3086 87.281 80.3817 90.7059 78.4798 92.2383L78.3992 92.3032C75.1633 94.9096 68.3974 100.359 73.3784 105.34C78.4012 110.363 83.7201 104.689 86.6139 100.372C88.524 97.5235 92.4402 90.6157 94.7797 86.1462C93.1967 91.158 90.9404 99.3606 90.6426 102.128L90.6315 102.231C90.1864 106.362 89.2557 115 96.3 115C103.403 115 103.152 107.226 102.146 102.128C101.481 98.7599 99.3628 91.095 97.8564 86.2812C100.28 90.9436 104.491 98.3506 106.239 100.52L106.303 100.601C108.91 103.837 114.36 110.602 119.341 105.621C124.363 100.599 118.689 95.2798 114.373 92.386C111.523 90.4751 104.611 86.5567 100.141 84.2175C105.153 85.8005 113.36 88.0582 116.128 88.3562L116.231 88.3672C120.362 88.8124 129 89.743 129 82.6987C129 75.5955 121.226 75.847 116.128 76.8528C112.128 77.6418 102.07 80.4816 97.9214 81.9114C101.866 79.9892 110.987 74.8845 114.373 72.614C118.689 69.7202 124.364 64.4014 119.341 59.3786C114.36 54.3975 108.91 61.1634 106.304 64.3993L106.239 64.4799C104.491 66.6497 100.279 74.0582 97.8559 78.7205C99.3623 73.9068 101.481 66.2405 102.146 62.8718C103.152 57.7735 103.403 50 96.3 50C89.2557 50 90.1864 58.6378 90.6315 62.7689L90.6426 62.8718C90.9404 65.639 93.1962 73.8401 94.7791 78.852C92.4395 74.3825 88.5241 67.4762 86.6143 64.6276C83.7204 60.3114 78.4016 54.6368 73.3788 59.6596C68.3977 64.6407 75.1637 70.0904 78.3996 72.6968L78.4801 72.7617Z" fill="#F57C00" fill-opacity="0.1"/>
<path fill-rule="evenodd" clip-rule="evenodd" d="M110.48 649.762C112.649 651.509 120.049 655.716 124.712 658.14C119.898 656.634 112.239 654.517 108.872 653.853C103.774 652.847 96 652.595 96 659.699C96 666.743 104.638 665.812 108.769 665.367L108.872 665.356C111.3 665.095 117.913 663.326 122.883 661.827C118.309 664.281 112.382 667.706 110.48 669.238L110.399 669.303C107.163 671.91 100.397 677.359 105.378 682.34C110.401 687.363 115.72 681.689 118.614 677.372C120.524 674.523 124.44 667.616 126.78 663.146C125.197 668.158 122.94 676.361 122.643 679.128L122.631 679.231C122.186 683.362 121.256 692 128.3 692C135.403 692 135.152 684.226 134.146 679.128C133.481 675.76 131.363 668.095 129.856 663.281C132.28 667.944 136.491 675.351 138.239 677.52L138.303 677.601C140.91 680.837 146.36 687.602 151.341 682.621C156.363 677.599 150.689 672.28 146.373 669.386C143.523 667.475 136.611 663.557 132.141 661.217C137.153 662.801 145.36 665.058 148.128 665.356L148.231 665.367C152.362 665.812 161 666.743 161 659.699C161 652.595 153.226 652.847 148.128 653.853C144.128 654.642 134.07 657.482 129.921 658.911C133.866 656.989 142.987 651.884 146.373 649.614C150.689 646.72 156.364 641.401 151.341 636.379C146.36 631.398 140.91 638.163 138.304 641.399L138.239 641.48C136.491 643.65 132.279 651.058 129.856 655.721C131.362 650.907 133.481 643.24 134.146 639.872C135.152 634.774 135.403 627 128.3 627C121.256 627 122.186 635.638 122.631 639.769L122.643 639.872C122.94 642.639 125.196 650.84 126.779 655.852C124.44 651.383 120.524 644.476 118.614 641.628C115.72 637.311 110.402 631.637 105.379 636.66C100.398 641.641 107.164 647.09 110.4 649.697L110.48 649.762Z" fill="#F57C00" fill-opacity="0.1"/>
<path fill-rule="evenodd" clip-rule="evenodd" d="M165 238.279C165 241.393 161.699 244.213 156.363 246.254C161.699 248.295 165 251.114 165 254.228C165 257.342 161.7 260.161 156.365 262.202C161.7 264.243 165 267.062 165 270.176C165 276.406 151.792 281.456 135.5 281.456C119.208 281.456 106 276.406 106 270.176C106 267.062 109.3 264.243 114.635 262.202C109.3 260.161 106 257.342 106 254.228C106 251.114 109.301 248.295 114.637 246.254C109.301 244.213 106 241.393 106 238.279C106 232.05 119.208 227 135.5 227C151.792 227 165 232.05 165 238.279Z" fill="#F57C00" fill-opacity="0.1"/>
<path fill-rule="evenodd" clip-rule="evenodd" d="M349 763.279C349 766.393 345.699 769.213 340.363 771.254C345.699 773.295 349 776.114 349 779.228C349 782.342 345.7 785.161 340.365 787.202C345.7 789.243 349 792.062 349 795.176C349 801.406 335.792 806.456 319.5 806.456C303.208 806.456 290 801.406 290 795.176C290 792.062 293.3 789.243 298.635 787.202C293.3 785.161 290 782.342 290 779.228C290 776.114 293.301 773.295 298.637 771.254C293.301 769.213 290 766.393 290 763.279C290 757.05 303.208 752 319.5 752C335.792 752 349 757.05 349 763.279Z" fill="#F57C00" fill-opacity="0.1"/>
<path d="M49.3415 336.284C59.7686 330.198 58.6645 314.804 47.4754 310.265L43.3829 308.605C39.8914 307.188 37.086 304.474 35.5574 301.033L33.5562 296.528C28.4676 285.073 12.2242 284.989 7.01735 296.391L4.83334 301.173C3.30058 304.53 0.547708 307.178 -2.86729 308.582L-6.5914 310.113C-17.7695 314.709 -18.7897 330.127 -8.31438 336.153L-1.14354 340.278C1.20399 341.628 3.12761 343.606 4.41074 345.989L7.80953 352.302C13.2637 362.433 27.7772 362.521 33.3547 352.458L37.0238 345.838C38.2916 343.551 40.1533 341.647 42.4131 340.328L49.3415 336.284Z" fill="#F57C00" fill-opacity="0.1"/>
<path d="M53.3415 767.284C63.7686 761.198 62.6645 745.804 51.4754 741.265L47.3829 739.605C43.8914 738.188 41.086 735.474 39.5574 732.033L37.5562 727.528C32.4676 716.073 16.2242 715.989 11.0174 727.391L8.83334 732.173C7.30058 735.53 4.54771 738.178 1.13271 739.582L-2.5914 741.113C-13.7695 745.709 -14.7897 761.127 -4.31438 767.153L2.85646 771.278C5.20399 772.628 7.12761 774.606 8.41074 776.989L11.8095 783.302C17.2637 793.433 31.7772 793.521 37.3547 783.458L41.0238 776.838C42.2916 774.551 44.1533 772.647 46.4131 771.328L53.3415 767.284Z" fill="#F57C00" fill-opacity="0.1"/>
<path d="M174.907 374.897C197.6 367.369 221.515 376.645 231.231 395.772C232.743 398.75 230.988 402.202 227.819 403.253L149.485 429.24C146.316 430.291 142.842 428.573 142.272 425.284C138.604 404.15 152.213 382.425 174.907 374.897Z" fill="#F57C00" fill-opacity="0.1"/>
<path fill-rule="evenodd" clip-rule="evenodd" d="M327.395 327.763C331.882 322.853 333.618 315.711 331.308 308.978C327.939 299.157 317.238 293.923 307.406 297.289C301.323 299.372 296.998 304.259 295.383 310.009C291.231 308.211 286.421 307.895 281.803 309.476C271.972 312.842 266.733 323.532 270.102 333.354C273.135 342.196 282.111 347.319 291.045 345.797C283.412 350.202 279.709 359.519 282.675 368.163C286.044 377.984 296.745 383.218 306.577 379.852C312.66 377.769 316.986 372.882 318.601 367.131C322.752 368.928 327.562 369.245 332.18 367.664C342.011 364.298 347.25 353.608 343.881 343.786C341.585 337.093 335.884 332.531 329.374 331.369C328.839 330.075 328.172 328.869 327.395 327.763Z" fill="#FFFDD3" fill-opacity="0.2"/>
<path fill-rule="evenodd" clip-rule="evenodd" d="M159.045 842.797C150.111 844.319 141.136 839.196 138.103 830.354C134.734 820.532 139.972 809.842 149.804 806.476C159.542 803.142 170.133 808.245 173.608 817.886L173.611 817.885C170.437 808.141 175.669 797.623 185.407 794.289C195.238 790.923 205.94 796.157 209.309 805.978C212.274 814.621 208.573 823.937 200.942 828.342C209.875 826.822 218.848 831.945 221.881 840.786C225.25 850.608 220.012 861.298 210.18 864.664C200.442 867.998 189.851 862.895 186.376 853.254C186.375 853.254 186.373 853.255 186.372 853.255C189.547 862.999 184.315 873.518 174.577 876.852C164.746 880.218 154.044 874.984 150.675 865.163C147.71 856.519 151.412 847.202 159.045 842.797Z" fill="#FFFDD3" fill-opacity="0.2"/>
<path fill-rule="evenodd" clip-rule="evenodd" d="M384.568 474.762C382.397 476.509 374.99 480.716 370.322 483.14C375.141 481.634 382.808 479.517 386.178 478.853C391.281 477.847 399.062 477.595 399.062 484.699C399.062 491.743 390.416 490.812 386.281 490.367L386.178 490.356C383.747 490.095 377.127 488.326 372.152 486.826C376.731 489.281 382.664 492.706 384.568 494.238L384.649 494.303C387.888 496.91 394.661 502.359 389.674 507.34C384.647 512.363 379.322 506.689 376.425 502.372C374.514 499.524 370.594 492.618 368.252 488.148C369.837 493.16 372.095 501.361 372.393 504.128L372.404 504.231C372.85 508.362 373.781 517 366.73 517C359.619 517 359.871 509.226 360.878 504.128C361.543 500.76 363.664 493.093 365.172 488.28C362.747 492.942 358.531 500.35 356.781 502.52L356.716 502.601C354.107 505.836 348.652 512.602 343.666 507.621C338.638 502.599 344.318 497.28 348.639 494.386C351.492 492.475 358.411 488.556 362.885 486.217C357.868 487.8 349.653 490.058 346.881 490.356L346.778 490.367C342.643 490.812 333.996 491.743 333.996 484.699C333.996 477.595 341.778 477.847 346.881 478.853C350.885 479.642 360.951 482.481 365.105 483.911C361.156 481.988 352.028 476.884 348.638 474.614C344.318 471.72 338.637 466.401 343.665 461.379C348.651 456.398 354.107 463.164 356.716 466.399L356.781 466.48C358.531 468.65 362.747 476.06 365.173 480.722C363.665 475.909 361.543 468.241 360.878 464.872C359.871 459.774 359.619 452 366.73 452C373.781 452 372.85 460.638 372.404 464.769L372.393 464.872C372.095 467.639 369.837 475.839 368.253 480.851C370.595 476.382 374.514 469.476 376.425 466.628C379.322 462.311 384.646 456.637 389.674 461.66C394.66 466.641 387.888 472.09 384.648 474.697L384.568 474.762Z" fill="#F57C00" fill-opacity="0.1"/>
<path fill-rule="evenodd" clip-rule="evenodd" d="M65.0024 499.279C65.0024 502.393 68.3063 505.213 73.6482 507.254C68.3063 509.295 65.0024 512.114 65.0024 515.228C65.0024 518.342 68.3056 521.161 73.6466 523.202C68.3056 525.243 65.0024 528.062 65.0024 531.176C65.0024 537.406 78.2234 542.456 94.5324 542.456C110.841 542.456 124.062 537.406 124.062 531.176C124.062 528.062 120.759 525.243 115.418 523.202C120.759 521.161 124.062 518.342 124.062 515.228C124.062 512.114 120.759 509.295 115.417 507.254C120.759 505.213 124.062 502.393 124.062 499.279C124.062 493.05 110.841 488 94.5324 488C78.2234 488 65.0024 493.05 65.0024 499.279Z" fill="#F57C00" fill-opacity="0.1"/>
</g>
<defs>
<clipPath id="clip0_1307_29675">
<rect width="393" height="852" fill="white"/>
</clipPath>
</defs>
</svg>
